<?xml version="1.0" encoding="UTF-8"?>
<svg viewBox="0 0 744.09448819 1052.3622047" xmlns="http://www.w3.org/2000/svg">
 <g transform="translate(1202.9 191.91)">
  <path transform="translate(-1200.9 -139.9)" d="m448.57 322.36c0 43.394-35.178 78.571-78.571 78.571s-78.571-35.178-78.571-78.571 35.178-78.571 78.571-78.571 78.571 35.178 78.571 78.571z" fill="#fff"/>
  <path d="m-830.86 284.15c-63.151 0-115.66 76.755-126.31 177.81-1.2971 12.306-1.9688 24.974-1.9688 37.906 0 3.744 0.0442 7.4591 0.15625 11.156 33.23 36.612 78.377 59.125 128.12 59.125s94.895-22.513 128.13-59.125c0.1121-3.6972 0.1562-7.4122 0.1562-11.156 0-12.932-0.6716-25.601-1.9687-37.906-10.652-101.06-63.161-177.81-126.31-177.81z" fill="#fff"/>
  <path d="m-830.86 99.878c-45.556 0-82.562 37.038-82.562 82.594s37.007 82.562 82.562 82.562 82.562-37.007 82.562-82.562-37.007-82.594-82.562-82.594zm0 8c41.232 0 74.562 33.362 74.562 74.594s-33.33 74.562-74.562 74.562-74.562-33.33-74.562-74.562 33.33-74.594 74.562-74.594z"/>
  <path d="m-830.85 280.16c-33.196 0-63.274 20.158-86.125 52.688s-38.801 77.582-44.188 128.69c-1.312 12.447-1.9688 25.273-1.9688 38.344 0 3.7755 0.0427 7.5348 0.15625 11.281l0.0312 1.4688 1 1.0938c33.893 37.342 80.139 60.438 131.09 60.438s97.201-23.095 131.09-60.438l0.9687-1.0938 0.063-1.4688c0.1135-3.7465 0.1562-7.5058 0.1562-11.281 0-13.07-0.688-25.897-2-38.344-5.3868-51.105-21.306-96.158-44.156-128.69s-52.929-52.688-86.125-52.688zm0 8c29.955 0 57.708 18.2 79.562 49.312s37.485 74.954 42.75 124.91c1.2822 12.164 1.9688 24.707 1.9688 37.5 0 3.1867-0.046 6.331-0.125 9.4688-32.47 35.258-76.091 56.812-124.16 56.812s-91.687-21.555-124.16-56.812c-0.0791-3.1379-0.125-6.2821-0.125-9.4688 0-12.793 0.65531-25.336 1.9375-37.5 5.2653-49.952 20.926-93.794 42.781-124.91s49.607-49.312 79.562-49.312z"/>
  <g transform="translate(-1739.4 -44.837)">
   <path d="m782.28 505.81c-1.2971 12.306-1.9688 24.974-1.9688 37.906 0 3.744 0.0442 7.4591 0.15625 11.156 33.23 36.612 78.377 59.125 128.13 59.125s94.895-22.513 128.13-59.125c0.1121-3.6972 0.1562-7.4122 0.1562-11.156 0-12.932-0.6716-25.601-1.9687-37.906-33.051 30.512-77.461 49.188-126.31 49.188s-93.262-18.676-126.31-49.188z"/>
   <path d="m782.06 501.81a4.0004 4.0004 0 0 0 -3.75 3.5938c-1.312 12.447-2 25.242-2 38.312 0 3.7755 0.0427 7.5348 0.15625 11.281a4.0004 4.0004 0 0 0 1.0312 2.5625c33.893 37.342 80.139 60.438 131.09 60.438s97.201-23.095 131.09-60.438a4.0004 4.0004 0 0 0 1.0313 -2.5625c0.1135-3.7465 0.1562-7.5058 0.1562-11.281 0-13.07-0.688-25.865-2-38.312a4.0004 4.0004 0 0 0 -6.6875 -2.5312c-32.336 29.852-75.762 48.125-123.59 48.125s-91.258-18.273-123.59-48.125a4.0004 4.0004 0 0 0 -2.9375 -1.0625zm3.5938 12.062c33.059 28.036 75.944 45.125 122.94 45.125s89.879-17.089 122.94-45.125c0.8133 9.7676 1.3438 19.693 1.3438 29.844 0 3.1867-0.046 6.331-0.125 9.4688-32.47 35.257-76.091 56.812-124.16 56.812s-91.687-21.555-124.16-56.812c-0.0791-3.1379-0.125-6.2821-0.125-9.4688 0-10.151 0.53049-20.076 1.3438-29.844z"/>
  </g>
  <path d="m-876.82 288.28c-49.016 26.967-86.449 101.86-95.54 194.41 35.32 34.988 82.702 56.512 134.85 56.781v-202.31c-8.4345-24.053-26.752-40.187-39.308-48.875z" fill="#fff" stroke="#000" stroke-linejoin="round" stroke-width="8"/>
  <path d="m-876.82 288.28c-4.2467 2.3363-8.3908 5.0577-12.453 8.0938 2.3483 9.0164 1.2405 20.806 0.64994 32.188l20.59 6.4688-12.115 15.562c29.107 10.963 33.094 70.239 42.636 120.81v-134.25c-8.4345-24.053-26.752-40.187-39.308-48.875z" fill="#fff" stroke="#000" stroke-linejoin="round" stroke-width="8"/>
  <path d="m-784.89 289.4c49.016 26.967 86.449 101.86 95.54 194.41-35.32 34.988-82.702 56.512-134.85 56.781v-202.31c8.4345-24.053 26.752-40.187 39.308-48.875z" fill="#fff" stroke="#000" stroke-linejoin="round" stroke-width="8"/>
  <path d="m-784.89 289.4c4.2467 2.3363 8.3908 5.0577 12.453 8.0938-2.3483 9.0164-1.2405 20.806-0.64994 32.188l-20.59 6.4688 12.115 15.562c-29.107 10.963-33.094 70.239-42.636 120.81v-134.25c8.4345-24.053 26.752-40.187 39.308-48.875z" fill="#fff" stroke="#000" stroke-linejoin="round" stroke-width="8"/>
  <path d="m-770.71 126.5c0 15.525-12.585 28.11-28.11 28.11s-28.11-12.585-28.11-28.11 12.585-28.11 28.11-28.11 28.11 12.585 28.11 28.11z" fill="#fff" stroke="#000" stroke-linecap="round" stroke-linejoin="round" stroke-width="8"/>
  <path transform="matrix(.08784 0 0 .08784 -810.82 109.56)" d="m182.15 192.76c0 25.15-20.388 45.538-45.538 45.538s-45.538-20.388-45.538-45.538 20.388-45.538 45.538-45.538 45.538 20.388 45.538 45.538z"/>
  <path d="m-780.43 385.41s29.288-2.872 37.292-10.607" fill="none" stroke="#000" stroke-width="11.25"/>
 </g>
</svg>
